#!OML:ASF H:\Dans Jumps\Project 1\Capture day 1\Session 1\subject.ASF
:FULLY-SPECIFIED
:DEGREES
315
root 0.392116 15.0684 2.37448 -5.49714 -1.22795 -1.2154
lowerback 14.0606 0.981816 -1.37137
upperback 6.84607 1.1581 1.79396
thorax -0.73445 0.518402 2.4784
lowerneck -12.2049 0.382413 -0.375437
upperneck 32.5917 0.223691 1.31271
head 12.8827 0.227445 0.607285
rclavicle -1.31198e-014 -2.66371e-014
rhumerus -15.2181 -14.4849 -83.1564
rradius 25.4821
rwrist 33.508
rhand -22.1711 -26.7237
rfingers 7.12502
rthumb 4.24352 -56.6611
lclavicle -1.31198e-014 -2.66371e-014
lhumerus -12.9845 12.7328 87.4261
lradius 13.2469
lwrist 0.53648
lhand -27.4306 -8.40134
lfingers 7.12502
lthumb -0.83597 21.5768
rfemur -43.496 -2.16357 21.7133
rtibia 64.1836
rfoot -13.6391 -0.799238
rtoes 9.0035
lfemur -41.873 6.04677 -17.0843
ltibia 64.5482
lfoot -12.2846 6.68275
ltoes -9.32451
316
root 0.385571 15.1089 2.4515 -5.31311 -1.16948 -1.26861
lowerback 13.9531 0.958326 -1.43369
upperback 6.79564 1.12157 1.82473
thorax -0.729738 0.498829 2.55185
lowerneck -12.1112 0.352941 -0.386537
upperneck 32.5756 0.148231 1.41621
head 12.8564 0.205745 0.637845
rclavicle 4.47266e-015 3.77691e-015
rhumerus -14.9717 -14.2657 -83.431
rradius 26.3947
rwrist 32.4236
rhand -22.4941 -26.867
rfingers 7.12502
rthumb 3.93165 -56.8105
lclavicle 4.47266e-015 3.77691e-015
lhumerus -12.9804 11.4881 87.779
lradius 13.9145
lwrist 2.61164
lhand -27.4504 -8.57934
lfingers 7.12502
lthumb -0.855062 21.3987
rfemur -43.1459 -2.19829 21.7803
rtibia 63.8629
rfoot -13.9426 -0.980628
rtoes 8.94754
lfemur -41.5577 6.13388 -17.0373
ltibia 64.1752
lfoot -12.3918 6.70584
ltoes -9.34903
317
root 0.379462 15.1606 2.52747 -5.12384 -1.13524 -1.26647
lowerback 13.8172 0.946823 -1.54844
upperback 6.75694 1.09446 1.84519
thorax -0.698495 0.482603 2.64311
lowerneck -12.0133 0.310228 -0.386934
upperneck 32.513 0.079104 1.43555
head 12.8099 0.177169 0.634471
rclavicle 1.51076e-014 1.19271e-014
rhumerus -14.766 -14.0223 -83.682
rradius 27.2674
rwrist 31.2973
rhand -22.8185 -26.9923
rfingers 7.12502
rthumb 3.61836 -56.9414
lclavicle 1.51076e-014 1.19271e-014
lhumerus -12.9846 10.4447 88.0876
lradius 14.4963
lwrist 4.77209
lhand -27.4648 -8.86288
lfingers 7.12502
lthumb -0.868997 21.1151
rfemur -42.7555 -2.10763 21.7775
rtibia 63.5355
rfoot -14.2732 -1.24334
rtoes 8.87165
lfemur -41.1855 6.18091 -17.0361
ltibia 63.7815
lfoot -12.5313 6.78413
ltoes -9.32929
318
root 0.374231 15.2211 2.60329 -4.91806 -1.1119 -1.2204
lowerback 13.6389 0.941209 -1.68962
upperback 6.7251 1.07235 1.85154
thorax -0.637581 0.468105 2.73425
lowerneck -11.9338 0.255305 -0.38662
upperneck 32.4591 0.0104426 1.39951
head 12.7711 0.1418 0.609911
rclavicle -3.8763e-015 -2.16675e-014
rhumerus -14.5666 -13.7121 -83.9137
rradius 28.0225
rwrist 30.3419
rhand -23.0954 -27.066
rfingers 7.12502
rthumb 3.35098 -57.0194
lclavicle -3.8763e-015 -2.16675e-014
lhumerus -12.9518 9.6587 88.338
lradius 14.9086
lwrist 6.6577
lhand -27.4219 -9.15284
lfingers 7.12502
lthumb -0.827603 20.8253
rfemur -42.3593 -1.89651 21.71
rtibia 63.2351
rfoot -14.6286 -1.56073
rtoes 8.85359
lfemur -40.7904 6.1578 -17.0719
ltibia 63.4006
lfoot -12.7057 6.93774
ltoes -9.24873
319
root 0.372029 15.201 2.69945 -4.70554 -1.08388 -1.13648
lowerback 13.4397 0.936632 -1.83193
upperback 6.69771 1.0518 1.83526
thorax -0.560362 0.454432 2.80227
lowerneck -11.8791 0.190737 -0.389816
upperneck 32.4401 -0.0627116 1.33716
head 12.7524 0.100794 0.575682
rclavicle 4.27387e-015 1.39149e-015
rhumerus -14.3539 -13.3254 -84.1322
rradius 28.6153
rwrist 29.7226
rhand -23.2993 -27.0654
rfingers 7.12502
rthumb 3.15402 -57.0218
lclavicle 4.27387e-015 1.39149e-015
lhumerus -12.8712 9.1218 88.5212
lradius 15.1215
lwrist 7.98984
lhand -27.3169 -9.34776
lfingers 7.12502
lthumb -0.726141 20.6307
rfemur -42.2976 -1.59205 21.5709
rtibia 63.1992
rfoot -14.892 -1.87326
rtoes 8.9427
lfemur -40.7025 6.0522 -17.1357
ltibia 63.2652
lfoot -12.8126 7.1248
ltoes -9.13637
320
root 0.369123 15.2775 2.77144 -4.49983 -1.04201 -1.02864
lowerback 13.248 0.930693 -1.95031
upperback 6.67214 1.03227 1.79194
thorax -0.484319 0.442165 2.82819
lowerneck -11.8493 0.119944 -0.398318
upperneck 32.4703 -0.143984 1.27586
head 12.7596 0.0559111 0.542171
rclavicle 4.12478e-015 -2.5842e-015
rhumerus -14.1264 -12.8799 -84.3419
rradius 29.038
rwrist 29.5137
rhand -23.4194 -26.983
rfingers 7.12502
rthumb 3.03811 -56.9411
lclavicle 4.12478e-015 -2.5842e-015
lhumerus -12.7491 8.80127 88.6328
lradius 15.1335
lwrist 8.57191
lhand -27.2082 -9.44885
lfingers 7.12502
lthumb -0.621178 20.53
rfemur -41.7765 -1.22342 21.3917
rtibia 62.6528
rfoot -15.0689 -2.15131
rtoes 9.18934
lfemur -40.1564 5.85184 -17.2328
ltibia 62.612
lfoot -12.8368 7.35382
ltoes -8.99737
321
root 0.366494 15.361 2.84068 -4.31062 -0.977617 -0.912599
lowerback 13.0812 0.92261 -2.03599
upperback 6.64568 1.01347 1.72697
thorax -0.421728 0.431499 2.81258
lowerneck -11.8271 0.0456893 -0.415931
upperneck 32.5394 -0.233147 1.23058
head 12.7849 0.00868833 0.515623
rclavicle 4.96962e-016 2.78299e-015
rhumerus -13.8958 -12.3997 -84.5398
rradius 29.3151
rwrist 29.6797
rhand -23.507 -26.7807
rfingers 7.12502
rthumb 2.95352 -56.74
lclavicle 4.96962e-016 2.78299e-015
lhumerus -12.6088 8.65256 88.68
lradius 14.967
lwrist 8.35564
lhand -27.1656 -9.52066
lfingers 7.12502
lthumb -0.580026 20.4583
rfemur -41.1859 -0.839086 21.189
rtibia 61.9884
rfoot -15.1607 -2.36013
rtoes 9.61067
lfemur -39.5374 5.58038 -17.3387
ltibia 61.8378
lfoot -12.7935 7.59151
ltoes -8.84082
322
root 0.36334 15.4511 2.90674 -4.13361 -0.892006 -0.808708
lowerback 12.9389 0.913233 -2.08261
upperback 6.61518 0.997186 1.65117
thorax -0.375925 0.423422 2.76294
lowerneck -11.8095 -0.0266132 -0.441642
upperneck 32.6465 -0.324088 1.20585
head 12.8272 -0.03746 0.498411
rclavicle 9.69075e-015 1.76918e-014
rhumerus -13.678 -11.907 -84.7231
rradius 29.4942
rwrist 30.0948
rhand -23.5719 -26.5003
rfingers 7.12502
rthumb 2.89075 -56.4604
lclavicle 9.69075e-015 1.76918e-014
lhumerus -12.4862 8.67581 88.6661
lradius 14.688
lwrist 7.35992
lhand -27.2093 -9.53959
lfingers 7.12502
lthumb -0.622213 20.4392
rfemur -40.4646 -0.468867 20.994
rtibia 61.0081
rfoot -15.0483 -2.46618
rtoes 10.2149
lfemur -38.7943 5.26911 -17.4307
ltibia 60.7533
lfoot -12.5737 7.74941
ltoes -8.66568
323
root 0.359244 15.5469 2.96961 -3.94903 -0.781821 -0.729522
lowerback 12.7978 0.901879 -2.09181
upperback 6.57595 0.982701 1.57566
thorax -0.339608 0.417348 2.69215
lowerneck -11.7835 -0.0970702 -0.473767
upperneck 32.7751 -0.415447 1.19597
head 12.8769 -0.0825002 0.488097
rclavicle -1.88845e-015 -5.76476e-015
rhumerus -13.4865 -11.4292 -84.8864
rradius 29.6203
rwrist 30.612
rhand -23.6338 -26.197
rfingers 7.12502
rthumb 2.83104 -56.158
lclavicle -1.88845e-015 -5.76476e-015
lhumerus -12.4071 8.86537 88.5999
lradius 14.3617
lwrist 5.74339
lhand -27.3146 -9.45888
lfingers 7.12502
lthumb -0.723922 20.5196
rfemur -39.6986 -0.144639 20.8282
rtibia 59.908
rfoot -14.8726 -2.49701
rtoes 10.9184
lfemur -38.0241 4.94577 -17.4989
ltibia 59.5698
lfoot -12.3129 7.85546
ltoes -8.4822
324
root 0.353885 15.6471 3.0298 -3.73132 -0.651351 -0.704144
lowerback 12.6295 0.887805 -2.04958
upperback 6.52032 0.971111 1.5167
thorax -0.305659 0.413878 2.60933
lowerneck -11.738 -0.16418 -0.513933
upperneck 32.9142 -0.503952 1.19894
head 12.9272 -0.125494 0.484612
rclavicle -5.06901e-015 -2.127e-014
rhumerus -13.3427 -10.9814 -85.0245
rradius 29.7519
rwrist 31.0637
rhand -23.6856 -25.9294
rfingers 7.12502
rthumb 2.78101 -55.8911
lclavicle -5.06901e-015 -2.127e-014
lhumerus -12.393 9.18402 88.4945
lradius 14.0455
lwrist 3.79811
lhand -27.4434 -9.3256
lfingers 7.12502
lthumb -0.848325 20.6525
rfemur -38.919 0.122845 20.729
rtibia 58.6979
rfoot -14.6476 -2.46064
rtoes 11.6443
lfemur -37.2695 4.64031 -17.5118
ltibia 58.3104
lfoot -12.0297 7.88705
ltoes -8.27419
325
root 0.347463 15.7502 3.08841 -3.45947 -0.503675 -0.737436
lowerback 12.3993 0.870994 -1.95798
upperback 6.44859 0.962497 1.48108
thorax -0.255165 0.412645 2.52307
lowerneck -11.6862 -0.22752 -0.548895
upperneck 33.0607 -0.586872 1.19792
head 12.9793 -0.165756 0.479503
rclavicle 1.11319e-014 1.15295e-014
rhumerus -13.2393 -10.5948 -85.136
rradius 29.9045
rwrist 31.354
rhand -23.7376 -25.7325
rfingers 7.12502
rthumb 2.73078 -55.6948
lclavicle 1.11319e-014 1.15295e-014
lhumerus -12.4531 9.57991 88.3678
lradius 13.7986
lwrist 1.87178
lhand -27.5421 -9.15308
lfingers 7.12502
lthumb -0.943689 20.8246
rfemur -38.1565 0.319894 20.7044
rtibia 57.397
rfoot -14.3884 -2.36975
rtoes 12.3457
lfemur -36.5626 4.37092 -17.4655
ltibia 56.9981
lfoot -11.7391 7.84172
ltoes -8.06385
